# This file uses centimeters as units for non-parametric coordinates.

mtllib pig.mtl
g default
v -1.121879 -0.291710 0.264426
v -1.121879 -0.157291 0.588945
v -1.121879 0.167228 0.723364
v 1.121879 -0.291710 0.264426
v 1.121879 0.167228 0.723364
v 1.121879 -0.157291 0.588945
v -1.121879 1.019673 0.264426
v -1.121879 0.560735 0.723364
v -1.121879 0.885253 0.588945
v 1.121879 1.019673 0.264426
v 1.121879 0.885253 0.588945
v 1.121879 0.560735 0.723364
v -1.121879 0.560735 -0.723364
v -1.121879 1.019673 -0.264426
v -1.121879 0.885253 -0.588945
v 1.121879 0.560735 -0.723364
v 1.121879 0.885253 -0.588945
v 1.121879 1.019673 -0.264426
v -1.121879 -0.291710 -0.264426
v -1.121879 0.167228 -0.723364
v -1.121879 -0.157291 -0.588945
v 1.121879 -0.291710 -0.264426
v 1.121879 -0.157291 -0.588945
v 1.121879 0.167228 -0.723364
v 1.479388 0.694054 -0.372923
v 1.479388 0.488567 -0.458039
v 1.479388 0.779169 -0.167436
v 1.479388 0.779169 0.167436
v 1.479388 0.694054 0.372923
v 1.479388 0.488567 0.458039
v 1.479388 0.239396 0.458039
v 1.479388 0.033909 0.372923
v 1.479388 -0.051207 0.167436
v 1.479388 -0.051207 -0.167436
v 1.479388 0.033909 -0.372923
v 1.479388 0.239396 -0.458039
v -0.987584 -0.668494 0.608610
v -0.559203 -0.668494 0.608610
v -0.987584 0.331506 0.608610
v -0.559203 0.331506 0.608610
v -0.987584 0.331506 0.161167
v -0.559203 0.331506 0.161167
v -0.987584 -0.668494 0.161167
v -0.559203 -0.668494 0.161167
v 0.420175 -0.668494 -0.112416
v 0.848557 -0.668494 -0.112416
v 0.420175 0.331506 -0.112416
v 0.848557 0.331506 -0.112416
v 0.420175 0.331506 -0.559860
v 0.848557 0.331506 -0.559860
v 0.420175 -0.668494 -0.559860
v 0.848557 -0.668494 -0.559860
v 0.420175 -0.668494 0.591313
v 0.848557 -0.668494 0.591313
v 0.420175 0.331506 0.591313
v 0.848557 0.331506 0.591313
v 0.420175 0.331506 0.143870
v 0.848557 0.331506 0.143870
v 0.420175 -0.668494 0.143870
v 0.848557 -0.668494 0.143870
v -0.987584 -0.668494 -0.112416
v -0.559203 -0.668494 -0.112416
v -0.987584 0.331506 -0.112416
v -0.559203 0.331506 -0.112416
v -0.987584 0.331506 -0.559860
v -0.559203 0.331506 -0.559860
v -0.987584 -0.668494 -0.559860
v -0.559203 -0.668494 -0.559860
vt 0.625000 0.329306
vt 0.375000 0.420694
vt 0.625000 0.829306
vt 0.375000 0.920694
vt 0.625000 0.587491
vt 0.375000 0.662509
vt 0.375000 0.087491
vt 0.625000 0.920694
vt 0.375000 0.329306
vt 0.625000 0.162509
vt 0.375000 0.587491
vt 0.625000 0.420694
vt 0.375000 0.829306
vt 0.625000 0.662509
vt 0.204306 0.000000
vt 0.295694 0.000000
vt 0.375000 0.162509
vt 0.295694 0.250000
vt 0.204306 0.250000
vt 0.125000 0.162509
vt 0.125000 0.087491
vt 0.875000 0.162509
vt 0.795694 0.250000
vt 0.704306 0.250000
vt 0.625000 0.087491
vt 0.704306 0.000000
vt 0.795694 0.000000
vt 0.875000 0.087491
vt 0.375000 0.000000
vt 0.375000 1.000000
vt 0.625000 1.000000
vt 0.625000 0.000000
vt 0.375000 0.250000
vt 0.625000 0.250000
vt 0.125000 0.250000
vt 0.375000 0.500000
vt 0.625000 0.500000
vt 0.875000 0.250000
vt 0.125000 0.000000
vt 0.375000 0.750000
vt 0.625000 0.750000
vt 0.875000 0.000000
vt 0.875000 0.162509
vt 0.875000 0.250000
vt 0.795694 0.250000
vt 0.704306 0.250000
vt 0.625000 0.250000
vt 0.625000 0.162509
vt 0.625000 0.087491
vt 0.625000 0.000000
vt 0.704306 0.000000
vt 0.795694 0.000000
vt 0.875000 0.000000
vt 0.875000 0.087491
vt 0.375000 0.000000
vt 0.625000 0.000000
vt 0.625000 0.250000
vt 0.375000 0.250000
vt 0.625000 0.500000
vt 0.375000 0.500000
vt 0.625000 0.750000
vt 0.375000 0.750000
vt 0.625000 1.000000
vt 0.375000 1.000000
vt 0.875000 0.000000
vt 0.875000 0.250000
vt 0.125000 0.000000
vt 0.125000 0.250000
vt 0.375000 0.000000
vt 0.625000 0.000000
vt 0.625000 0.250000
vt 0.375000 0.250000
vt 0.625000 0.500000
vt 0.375000 0.500000
vt 0.625000 0.750000
vt 0.375000 0.750000
vt 0.625000 1.000000
vt 0.375000 1.000000
vt 0.875000 0.000000
vt 0.875000 0.250000
vt 0.125000 0.000000
vt 0.125000 0.250000
vt 0.375000 0.000000
vt 0.625000 0.000000
vt 0.625000 0.250000
vt 0.375000 0.250000
vt 0.625000 0.500000
vt 0.375000 0.500000
vt 0.625000 0.750000
vt 0.375000 0.750000
vt 0.625000 1.000000
vt 0.375000 1.000000
vt 0.875000 0.000000
vt 0.875000 0.250000
vt 0.125000 0.000000
vt 0.125000 0.250000
vt 0.375000 0.000000
vt 0.625000 0.000000
vt 0.625000 0.250000
vt 0.375000 0.250000
vt 0.625000 0.500000
vt 0.375000 0.500000
vt 0.625000 0.750000
vt 0.375000 0.750000
vt 0.625000 1.000000
vt 0.375000 1.000000
vt 0.875000 0.000000
vt 0.875000 0.250000
vt 0.125000 0.000000
vt 0.125000 0.250000
vn 0.000000 -0.184011 0.982924
vn 0.000000 -0.184011 0.982924
vn 0.000000 0.184011 0.982924
vn 0.000000 0.184011 0.982924
vn 0.000000 0.987821 0.155598
vn 0.000000 0.987821 0.155598
vn 0.000000 0.987821 -0.155598
vn 0.000000 0.987821 -0.155598
vn 0.000000 0.184011 -0.982924
vn 0.000000 0.184011 -0.982924
vn 0.000000 -0.184011 -0.982924
vn 0.000000 -0.184011 -0.982924
vn 0.000000 -0.987821 -0.155598
vn 0.000000 -0.987821 -0.155598
vn 0.000000 -0.987821 0.155598
vn 0.000000 -0.987821 0.155598
vn 0.000000 -0.382683 0.923880
vn 0.000000 -0.382683 0.923880
vn 0.000000 -0.923880 0.382683
vn 0.000000 -0.923880 0.382683
vn 0.000000 0.923880 0.382683
vn 0.000000 0.923880 0.382683
vn 0.000000 0.382683 0.923880
vn 0.000000 0.382683 0.923880
vn 0.000000 0.382683 -0.923880
vn 0.000000 0.382683 -0.923880
vn 0.000000 0.923880 -0.382683
vn 0.000000 0.923880 -0.382683
vn 0.000000 -0.923880 -0.382683
vn 0.000000 -0.923880 -0.382683
vn 0.000000 -0.382683 -0.923880
vn 0.000000 -0.382683 -0.923880
vn -1.000000 0.000000 0.000000
vn -1.000000 0.000000 0.000000
vn -1.000000 0.000000 0.000000
vn -1.000000 0.000000 0.000000
vn -1.000000 0.000000 0.000000
vn -1.000000 0.000000 0.000000
vn -1.000000 0.000000 0.000000
vn -1.000000 0.000000 0.000000
vn -1.000000 0.000000 0.000000
vn -1.000000 0.000000 0.000000
vn -1.000000 0.000000 0.000000
vn -1.000000 0.000000 0.000000
vn 1.000000 0.000000 0.000000
vn 1.000000 0.000000 0.000000
vn 1.000000 0.000000 0.000000
vn 1.000000 0.000000 0.000000
vn 1.000000 0.000000 0.000000
vn 1.000000 0.000000 0.000000
vn 1.000000 0.000000 0.000000
vn 1.000000 0.000000 0.000000
vn 1.000000 0.000000 0.000000
vn 1.000000 0.000000 0.000000
vn 1.000000 0.000000 0.000000
vn 1.000000 0.000000 0.000000
vn 0.606548 0.304252 -0.734527
vn 0.606548 0.304252 -0.734527
vn 0.606548 0.304252 -0.734527
vn 0.606548 0.304252 -0.734527
vn 0.587144 0.747864 -0.309776
vn 0.587144 0.747864 -0.309776
vn 0.587144 0.747864 -0.309776
vn 0.587144 0.747864 -0.309776
vn 0.558173 0.829725 0.000000
vn 0.558173 0.829725 0.000000
vn 0.558173 0.829725 0.000000
vn 0.558173 0.829725 0.000000
vn 0.587144 0.747864 0.309776
vn 0.587144 0.747864 0.309776
vn 0.587144 0.747864 0.309776
vn 0.587144 0.747864 0.309776
vn 0.606548 0.304252 0.734527
vn 0.606548 0.304252 0.734527
vn 0.606548 0.304252 0.734527
vn 0.606548 0.304252 0.734527
vn 0.595959 0.000000 0.803015
vn 0.595959 0.000000 0.803015
vn 0.595959 0.000000 0.803015
vn 0.595959 0.000000 0.803015
vn 0.606548 -0.304251 0.734527
vn 0.606548 -0.304251 0.734527
vn 0.606548 -0.304251 0.734527
vn 0.606548 -0.304251 0.734527
vn 0.587144 -0.747864 0.309775
vn 0.587144 -0.747864 0.309775
vn 0.587144 -0.747864 0.309775
vn 0.587144 -0.747864 0.309775
vn 0.558173 -0.829725 0.000000
vn 0.558173 -0.829725 0.000000
vn 0.558173 -0.829725 0.000000
vn 0.558173 -0.829725 0.000000
vn 0.587144 -0.747864 -0.309775
vn 0.587144 -0.747864 -0.309775
vn 0.587144 -0.747864 -0.309775
vn 0.587144 -0.747864 -0.309775
vn 0.606548 -0.304251 -0.734527
vn 0.606548 -0.304251 -0.734527
vn 0.606548 -0.304251 -0.734527
vn 0.606548 -0.304251 -0.734527
vn 0.595959 0.000000 -0.803015
vn 0.595959 0.000000 -0.803015
vn 0.595959 0.000000 -0.803015
vn 0.595959 0.000000 -0.803015
vn 0.000000 0.000000 1.000000
vn 0.000000 0.000000 1.000000
vn 0.000000 0.000000 1.000000
vn 0.000000 0.000000 1.000000
vn 0.000000 1.000000 0.000000
vn 0.000000 1.000000 0.000000
vn 0.000000 1.000000 0.000000
vn 0.000000 1.000000 0.000000
vn 0.000000 0.000000 -1.000000
vn 0.000000 0.000000 -1.000000
vn 0.000000 0.000000 -1.000000
vn 0.000000 0.000000 -1.000000
vn 0.000000 -1.000000 0.000000
vn 0.000000 -1.000000 0.000000
vn 0.000000 -1.000000 0.000000
vn 0.000000 -1.000000 0.000000
vn 1.000000 0.000000 0.000000
vn 1.000000 0.000000 0.000000
vn 1.000000 0.000000 0.000000
vn 1.000000 0.000000 0.000000
vn -1.000000 0.000000 0.000000
vn -1.000000 0.000000 0.000000
vn -1.000000 0.000000 0.000000
vn -1.000000 0.000000 0.000000
vn 0.000000 0.000000 1.000000
vn 0.000000 0.000000 1.000000
vn 0.000000 0.000000 1.000000
vn 0.000000 0.000000 1.000000
vn 0.000000 1.000000 0.000000
vn 0.000000 1.000000 0.000000
vn 0.000000 1.000000 0.000000
vn 0.000000 1.000000 0.000000
vn 0.000000 0.000000 -1.000000
vn 0.000000 0.000000 -1.000000
vn 0.000000 0.000000 -1.000000
vn 0.000000 0.000000 -1.000000
vn 0.000000 -1.000000 0.000000
vn 0.000000 -1.000000 0.000000
vn 0.000000 -1.000000 0.000000
vn 0.000000 -1.000000 0.000000
vn 1.000000 0.000000 0.000000
vn 1.000000 0.000000 0.000000
vn 1.000000 0.000000 0.000000
vn 1.000000 0.000000 0.000000
vn -1.000000 0.000000 0.000000
vn -1.000000 0.000000 0.000000
vn -1.000000 0.000000 0.000000
vn -1.000000 0.000000 0.000000
vn 0.000000 0.000000 1.000000
vn 0.000000 0.000000 1.000000
vn 0.000000 0.000000 1.000000
vn 0.000000 0.000000 1.000000
vn 0.000000 1.000000 0.000000
vn 0.000000 1.000000 0.000000
vn 0.000000 1.000000 0.000000
vn 0.000000 1.000000 0.000000
vn 0.000000 0.000000 -1.000000
vn 0.000000 0.000000 -1.000000
vn 0.000000 0.000000 -1.000000
vn 0.000000 0.000000 -1.000000
vn 0.000000 -1.000000 0.000000
vn 0.000000 -1.000000 0.000000
vn 0.000000 -1.000000 0.000000
vn 0.000000 -1.000000 0.000000
vn 1.000000 0.000000 0.000000
vn 1.000000 0.000000 0.000000
vn 1.000000 0.000000 0.000000
vn 1.000000 0.000000 0.000000
vn -1.000000 0.000000 0.000000
vn -1.000000 0.000000 0.000000
vn -1.000000 0.000000 0.000000
vn -1.000000 0.000000 0.000000
vn 0.000000 0.000000 1.000000
vn 0.000000 0.000000 1.000000
vn 0.000000 0.000000 1.000000
vn 0.000000 0.000000 1.000000
vn 0.000000 1.000000 0.000000
vn 0.000000 1.000000 0.000000
vn 0.000000 1.000000 0.000000
vn 0.000000 1.000000 0.000000
vn 0.000000 0.000000 -1.000000
vn 0.000000 0.000000 -1.000000
vn 0.000000 0.000000 -1.000000
vn 0.000000 0.000000 -1.000000
vn 0.000000 -1.000000 0.000000
vn 0.000000 -1.000000 0.000000
vn 0.000000 -1.000000 0.000000
vn 0.000000 -1.000000 0.000000
vn 1.000000 0.000000 0.000000
vn 1.000000 0.000000 0.000000
vn 1.000000 0.000000 0.000000
vn 1.000000 0.000000 0.000000
vn -1.000000 0.000000 0.000000
vn -1.000000 0.000000 0.000000
vn -1.000000 0.000000 0.000000
vn -1.000000 0.000000 0.000000
s 1
g pCube6
usemtl initialShadingGroup
f 3/7/1 5/25/2 12/10/3 8/17/4
s 2
f 7/9/5 10/1/6 18/12/7 14/2/8
s 3
f 13/11/9 16/5/10 24/14/11 20/6/12
s 4
f 19/13/13 22/3/14 4/8/15 1/4/16
s 1
f 3/7/1 2/29/17 6/32/18 5/25/2
s 4
f 2/30/19 1/4/16 4/8/15 6/31/20
s 2
f 7/9/5 9/33/21 11/34/22 10/1/6
s 1
f 9/33/23 8/17/4 12/10/3 11/34/24
s 3
f 13/11/9 15/36/25 17/37/26 16/5/10
s 2
f 15/36/27 14/2/8 18/12/7 17/37/28
s 4
f 19/13/13 21/40/29 23/41/30 22/3/14
s 3
f 21/40/31 20/6/12 24/14/11 23/41/32
s off
f 19/15/33 1/16/34 2/29/35 3/7/36 8/17/37 9/33/38 7/18/39 14/19/40 15/35/41 13/20/42 20/21/43 21/39/44
f 26/43/45 25/44/46 27/45/47 28/46/48 29/47/49 30/48/50 31/49/51 32/50/52 33/51/53 34/52/54 35/53/55 36/54/56
f 16/22/57 17/38/58 25/44/59 26/43/60
f 17/38/61 18/23/62 27/45/63 25/44/64
f 18/23/65 10/24/66 28/46/67 27/45/68
f 10/24/69 11/34/70 29/47/71 28/46/72
f 11/34/73 12/10/74 30/48/75 29/47/76
f 12/10/77 5/25/78 31/49/79 30/48/80
f 5/25/81 6/32/82 32/50/83 31/49/84
f 6/32/85 4/26/86 33/51/87 32/50/88
f 4/26/89 22/27/90 34/52/91 33/51/92
f 22/27/93 23/42/94 35/53/95 34/52/96
f 23/42/97 24/28/98 36/54/99 35/53/100
f 24/28/101 16/22/102 26/43/103 36/54/104
f 37/55/105 38/56/106 40/57/107 39/58/108
f 39/58/109 40/57/110 42/59/111 41/60/112
f 41/60/113 42/59/114 44/61/115 43/62/116
f 43/62/117 44/61/118 38/63/119 37/64/120
f 38/56/121 44/65/122 42/66/123 40/57/124
f 43/67/125 37/55/126 39/58/127 41/68/128
f 45/69/129 46/70/130 48/71/131 47/72/132
f 47/72/133 48/71/134 50/73/135 49/74/136
f 49/74/137 50/73/138 52/75/139 51/76/140
f 51/76/141 52/75/142 46/77/143 45/78/144
f 46/70/145 52/79/146 50/80/147 48/71/148
f 51/81/149 45/69/150 47/72/151 49/82/152
f 53/83/153 54/84/154 56/85/155 55/86/156
f 55/86/157 56/85/158 58/87/159 57/88/160
f 57/88/161 58/87/162 60/89/163 59/90/164
f 59/90/165 60/89/166 54/91/167 53/92/168
f 54/84/169 60/93/170 58/94/171 56/85/172
f 59/95/173 53/83/174 55/86/175 57/96/176
f 61/97/177 62/98/178 64/99/179 63/100/180
f 63/100/181 64/99/182 66/101/183 65/102/184
f 65/102/185 66/101/186 68/103/187 67/104/188
f 67/104/189 68/103/190 62/105/191 61/106/192
f 62/98/193 68/107/194 66/108/195 64/99/196
f 67/109/197 61/97/198 63/100/199 65/110/200
